<?xml version="1.0" encoding="UTF-8" standalone="no"?>
<svg
   version="1.1"
   id="Layer_1"
   x="0px"
   y="0px"
   width="100%"
   viewBox="0 0 605 333"
   enable-background="new 0 0 605 333"
   xml:space="preserve"
   sodipodi:docname="Logo white.svg"
   inkscape:version="1.2.1 (9c6d41e410, 2022-07-14)"
   xmlns:inkscape="http://www.inkscape.org/namespaces/inkscape"
   xmlns:sodipodi="http://sodipodi.sourceforge.net/DTD/sodipodi-0.dtd"
   xmlns="http://www.w3.org/2000/svg"
   xmlns:svg="http://www.w3.org/2000/svg"><defs
   id="defs1145"><linearGradient
     id="linearGradient6922"
     inkscape:swatch="solid"><stop
       style="stop-color:#274156;stop-opacity:1;"
       offset="0"
       id="stop6920" /></linearGradient></defs><sodipodi:namedview
   id="namedview1143"
   pagecolor="#ffffff"
   bordercolor="#000000"
   borderopacity="0.25"
   inkscape:showpageshadow="2"
   inkscape:pageopacity="0.0"
   inkscape:pagecheckerboard="0"
   inkscape:deskcolor="#d1d1d1"
   showgrid="false"
   inkscape:zoom="1.3785124"
   inkscape:cx="338.04556"
   inkscape:cy="162.494"
   inkscape:window-width="1366"
   inkscape:window-height="705"
   inkscape:window-x="-8"
   inkscape:window-y="-8"
   inkscape:window-maximized="1"
   inkscape:current-layer="Layer_1" />
<path
   fill="#FFFFFF"
   opacity="1.000000"
   stroke="none"
   d=" M393.000000,334.000000   C262.000000,334.000000 131.500000,334.000000 1.000000,334.000000   C1.000000,223.000000 1.000000,112.000000 1.000000,1.000000   C202.666672,1.000000 404.333344,1.000000 606.000000,1.000000   C606.000000,112.000000 606.000000,223.000000 606.000000,334.000000   C535.166687,334.000000 464.333344,334.000000 393.000000,334.000000  M244.514404,174.965057   C250.711914,180.490311 257.734100,180.652664 265.040985,177.852264   C266.381927,177.338364 267.964020,175.892868 268.305054,174.583191   C270.568787,165.889801 268.529999,163.411453 259.615112,163.482285   C258.783020,163.488892 257.777130,163.199234 257.159180,163.565491   C256.212128,164.126740 254.932846,165.119568 254.905823,165.964752   C254.878265,166.826279 256.029785,168.073853 256.966461,168.521057   C257.925354,168.978867 259.337891,168.415421 260.387146,168.776978   C261.269470,169.080994 262.435699,170.006943 262.531036,170.774902   C262.644531,171.689163 261.710815,173.596481 261.296570,173.578293   C257.599060,173.415771 253.554504,173.741028 250.323608,172.312988   C246.595734,170.665298 245.364624,166.627533 246.258057,162.454956   C247.148544,158.296097 249.816315,155.614182 253.994034,155.007019   C256.402985,154.656952 259.090485,154.669250 261.376709,155.391663   C264.844727,156.487518 265.926422,155.245483 266.133972,152.168442   C258.610413,147.566177 249.253036,148.764908 243.788223,154.939209   C238.738235,160.644836 238.814209,167.619522 244.514404,174.965057  M373.100525,178.640396   C381.729584,175.884644 385.676453,170.470215 384.834808,162.543030   C384.093719,155.562881 378.121948,150.449066 369.778381,149.831161   C366.962830,149.622665 364.048706,149.397675 361.321167,149.919678   C359.970795,150.178131 358.056244,152.026138 357.928619,153.307526   C357.501770,157.593689 357.765472,161.948654 357.765411,166.277283   C357.765198,180.722290 357.765320,180.722290 373.100525,178.640396  M317.571747,170.749313   C318.906311,172.433228 320.029572,174.355545 321.612946,175.758728   C327.629242,181.090439 337.628448,180.734482 343.520447,175.153992   C348.974792,169.987976 349.562469,161.008453 344.828583,155.166718   C340.265961,149.536316 331.441132,147.729019 324.844879,151.074203   C317.577881,154.759521 315.015747,161.158279 317.571747,170.749313  M303.232910,153.253937   C301.973938,152.454651 300.783447,151.509323 299.444183,150.881210   C293.426117,148.058670 285.697388,149.436386 280.947479,154.083984   C276.594147,158.343552 275.380798,164.962601 277.910248,170.652802   C280.543030,176.575439 286.596558,179.969879 293.842255,179.419418   C299.973267,178.953674 304.640808,176.051193 307.001190,170.284515   C309.499542,164.180679 308.328491,158.576599 303.232910,153.253937  M173.206863,166.767868   C165.816498,166.767868 158.426132,166.767868 150.493820,166.767868   C151.077240,171.411209 151.372223,175.203842 152.131516,178.901138   C152.352585,179.977676 153.878174,181.561554 154.842178,181.588028   C162.771652,181.805771 170.709702,181.710999 178.902069,181.710999   C178.902069,176.524780 178.902069,171.834991 178.902069,166.768906   C177.054626,166.768906 175.586441,166.768906 173.206863,166.767868  M174.182953,147.265442   C168.204926,147.266083 162.222946,147.151154 156.251862,147.355133   C154.894516,147.401505 152.610107,148.331360 152.403534,149.232864   C151.468170,153.315277 151.124496,157.533264 150.554703,161.800522   C160.646515,161.800522 169.819626,161.800522 179.278168,161.800522   C179.278168,157.898453 179.097000,154.409454 179.329910,150.948318   C179.555801,147.591812 177.836121,146.960098 174.182953,147.265442  M403.585510,149.703201   C401.754944,149.706284 399.751862,149.249023 398.145782,149.850983   C396.737427,150.378815 394.822876,152.055267 394.770935,153.293106   C394.457367,160.768646 394.457031,168.270615 394.772705,175.745956   C394.824493,176.972092 396.876160,179.007446 398.148224,179.126770   C402.602142,179.544601 407.132385,179.470749 411.603088,179.153519   C412.670105,179.077820 413.618805,177.334869 414.621918,176.358749   C413.602844,175.601212 412.630157,174.278580 411.556183,174.190491   C408.126495,173.909195 404.659180,174.086136 401.178162,174.086136   C401.178162,171.660736 401.178162,169.816254 401.178162,167.702698   C402.966125,167.702698 404.382812,168.011093 405.589874,167.639175   C408.187134,166.838867 413.088348,170.080109 413.061249,164.971069   C413.036499,160.310104 408.353271,163.282700 405.847717,162.554520   C404.353333,162.120224 402.687836,162.274612 401.003540,162.157715   C401.003540,159.570786 401.003540,157.498718 401.003540,154.917007   C404.579803,154.917007 407.892151,155.127502 411.152679,154.808228   C412.371735,154.688858 413.469879,153.334732 414.623169,152.543579   C413.420624,151.598129 412.335327,150.131409 410.988281,149.828476   C408.928864,149.365280 406.688782,149.705231 403.585510,149.703201  M179.104767,123.985756   C179.377625,119.776749 176.899780,119.443001 173.630753,119.990654   C165.061584,121.426239 155.432312,132.799896 155.078705,142.070099   C162.964081,142.070099 170.841934,142.070099 179.109955,142.070099   C179.109955,136.119751 179.109955,130.500214 179.104767,123.985756  M179.122055,196.513397   C179.122055,193.390350 179.122055,190.267303 179.122055,187.047058   C170.662491,187.047058 162.679520,187.047058 154.149124,187.047058   C157.799988,196.641037 161.892700,205.064453 171.790985,208.579483   C177.422165,210.579193 179.056168,209.261002 179.109985,203.458664   C179.128448,201.469238 179.118332,199.479553 179.122055,196.513397  M200.291718,167.513412   C202.620209,168.353256 205.379150,168.664932 207.189575,170.140442   C211.238495,173.440338 216.190674,173.786179 219.776337,170.299393   C223.181595,166.988037 223.173874,162.089035 219.758163,158.751846   C216.114136,155.191589 211.265015,155.433273 207.210617,158.875244   C205.636383,160.211700 203.330750,161.242096 201.293015,161.369720   C195.854095,161.710342 190.379776,161.485657 184.598389,161.485657   C184.598389,163.670456 184.598389,165.359238 184.598389,167.512512   C189.752487,167.512512 194.550339,167.512512 200.291718,167.513412  M441.300812,157.597824   C439.666260,161.122147 438.031708,164.646469 435.995453,169.036926   C433.298615,163.172043 430.888062,158.317490 428.828705,153.318268   C427.396118,149.840561 425.311340,148.908401 421.404419,150.562134   C426.073883,160.448700 430.641693,170.120056 435.209503,179.791397   C435.793243,179.690155 436.376953,179.588913 436.960663,179.487671   C441.475250,169.835846 445.989838,160.184021 450.609497,150.307510   C445.034424,149.583618 445.034424,149.583618 441.300812,157.597824  M189.224594,173.033173   C187.641907,173.104111 186.059219,173.175034 184.180283,173.259247   C184.325302,175.268188 184.427811,176.688049 184.524063,178.021378   C192.482941,179.422638 192.663757,179.714050 193.906296,188.033463   C194.550446,192.346436 197.283142,194.806183 201.599884,195.229446   C205.834808,195.644714 209.645752,192.888535 210.455719,188.818649   C211.303696,184.557861 209.798523,180.166840 205.758469,179.620834   C199.840088,178.820953 195.200317,176.210648 190.545639,173.075607   C190.427765,172.996201 190.220123,173.050079 189.224594,173.033173  M208.836151,147.247467   C211.466827,143.715790 211.517883,140.105179 208.716324,136.745926   C206.236084,133.771957 202.826630,132.838364 199.257492,134.304031   C195.341675,135.912048 193.520203,138.997009 193.870926,143.426285   C194.231949,147.985641 191.226791,149.760544 187.281525,150.492004   C186.348663,150.664963 185.419189,150.856110 184.219788,151.091583   C184.334885,152.739075 184.434006,154.157883 184.557983,155.932434   C186.828918,155.932434 189.714706,156.768906 190.597183,155.793304   C195.428909,150.451614 202.936554,151.518692 208.836151,147.247467  M146.088181,156.866989   C146.470612,153.808105 146.853058,150.749222 147.232498,147.714203   C133.641617,146.086563 129.375183,150.158066 131.689392,161.924667   C136.257446,161.924667 140.825500,161.924667 145.552719,161.924667   C145.724548,160.315201 145.863556,159.013016 146.088181,156.866989  M131.510071,167.143768   C132.141998,171.331558 132.626709,175.551437 133.526245,179.680923   C133.713043,180.538452 135.401230,181.567383 136.461014,181.644516   C139.891541,181.894226 143.351624,181.737747 147.290894,181.737747   C146.656815,176.510513 146.088120,171.822296 145.483566,166.838409   C140.887573,166.838409 136.593781,166.838409 131.510071,167.143768  M154.547424,199.694031   C152.948929,196.249710 151.458572,192.748444 149.692047,189.392578   C149.091171,188.251114 147.878143,186.795380 146.800018,186.663040   C143.770035,186.291153 140.664673,186.533295 137.326889,186.533295   C140.589569,194.519165 151.028214,203.595169 157.674393,204.542892   C156.716217,203.046814 155.831818,201.665894 154.547424,199.694031  M149.194946,140.884720   C151.419708,135.901169 153.644470,130.917618 155.813828,126.058136   C149.654022,126.502106 140.192017,134.723785 137.507004,142.792511   C141.521851,142.366714 145.193909,141.977280 149.194946,140.884720  M157.524048,123.510887   C157.524048,123.510887 157.486145,123.519379 157.524048,123.510887  z"
   id="path1098"
   style="fill:#605856;fill-opacity:1" />
<path
   fill="#2CA2D8"
   opacity="1.000000"
   stroke="none"
   d=" M244.257584,174.707092   C238.814209,167.619522 238.738235,160.644836 243.788223,154.939209   C249.253036,148.764908 258.610413,147.566177 266.133972,152.168442   C265.926422,155.245483 264.844727,156.487518 261.376709,155.391663   C259.090485,154.669250 256.402985,154.656952 253.994034,155.007019   C249.816315,155.614182 247.148544,158.296097 246.258057,162.454956   C245.364624,166.627533 246.595734,170.665298 250.323608,172.312988   C253.554504,173.741028 257.599060,173.415771 261.296570,173.578293   C261.710815,173.596481 262.644531,171.689163 262.531036,170.774902   C262.435699,170.006943 261.269470,169.080994 260.387146,168.776978   C259.337891,168.415421 257.925354,168.978867 256.966461,168.521057   C256.029785,168.073853 254.878265,166.826279 254.905823,165.964752   C254.932846,165.119568 256.212128,164.126740 257.159180,163.565491   C257.777130,163.199234 258.783020,163.488892 259.615112,163.482285   C268.529999,163.411453 270.568787,165.889801 268.305054,174.583191   C267.964020,175.892868 266.381927,177.338364 265.040985,177.852264   C257.734100,180.652664 250.711914,180.490311 244.257584,174.707092  z"
   id="path1100"
   style="fill:#274156;fill-opacity:1;stroke:#274156;stroke-opacity:1" />
<path
   fill="#2CA2D9"
   opacity="1.000000"
   stroke="none"
   d=" M372.703430,178.729034   C357.765320,180.722290 357.765198,180.722290 357.765411,166.277283   C357.765472,161.948654 357.501770,157.593689 357.928619,153.307526   C358.056244,152.026138 359.970795,150.178131 361.321167,149.919678   C364.048706,149.397675 366.962830,149.622665 369.778381,149.831161   C378.121948,150.449066 384.093719,155.562881 384.834808,162.543030   C385.676453,170.470215 381.729584,175.884644 372.703430,178.729034  M377.982300,169.131912   C381.352570,158.990829 375.402771,153.245621 363.531952,155.495895   C363.531952,161.479004 363.531952,167.514313 363.531952,173.748627   C368.980682,174.463715 374.003632,174.804962 377.982300,169.131912  z"
   id="path1102"
   style="stroke:#274156;stroke-opacity:1;fill:#274156;fill-opacity:1" />
<path
   fill="#2AA2D9"
   opacity="1.000000"
   stroke="none"
   d=" M317.408081,170.402649   C315.015747,161.158279 317.577881,154.759521 324.844879,151.074203   C331.441132,147.729019 340.265961,149.536316 344.828583,155.166718   C349.562469,161.008453 348.974792,169.987976 343.520447,175.153992   C337.628448,180.734482 327.629242,181.090439 321.612946,175.758728   C320.029572,174.355545 318.906311,172.433228 317.408081,170.402649  M336.142883,155.063080   C328.762848,153.348969 323.664978,156.092117 322.337982,162.491455   C321.186035,168.046890 324.600891,173.301208 330.176941,174.553085   C334.481018,175.519363 338.944000,173.343674 341.009460,169.272324   C343.491577,164.379654 342.025299,159.492355 336.142883,155.063080  z"
   id="path1104"
   style="fill:#274156;fill-opacity:1;stroke:#274156;stroke-opacity:1" />
<path
   fill="#28A1D9"
   opacity="1.000000"
   stroke="none"
   d=" M303.498444,153.499619   C308.328491,158.576599 309.499542,164.180679 307.001190,170.284515   C304.640808,176.051193 299.973267,178.953674 293.842255,179.419418   C286.596558,179.969879 280.543030,176.575439 277.910248,170.652802   C275.380798,164.962601 276.594147,158.343552 280.947479,154.083984   C285.697388,149.436386 293.426117,148.058670 299.444183,150.881210   C300.783447,151.509323 301.973938,152.454651 303.498444,153.499619  M293.272736,174.827988   C294.684753,174.350937 296.201843,174.065887 297.489227,173.361160   C301.506134,171.162308 302.667328,167.488861 302.274475,163.182907   C301.885559,158.919998 299.597260,156.102661 295.528168,154.788895   C291.457520,153.474640 287.335114,154.208832 285.258698,157.694168   C283.567108,160.533539 282.789703,164.613647 283.283600,167.890945   C283.972992,172.465729 287.933533,174.481140 293.272736,174.827988  z"
   id="path1106"
   style="fill:#274156;fill-opacity:1;stroke:#274156;stroke-opacity:1" />
<path
   fill="#239FD8"
   opacity="1.000000"
   stroke="none"
   d=" M173.662567,166.768387   C175.586441,166.768906 177.054626,166.768906 178.902069,166.768906   C178.902069,171.834991 178.902069,176.524780 178.902069,181.710999   C170.709702,181.710999 162.771652,181.805771 154.842178,181.588028   C153.878174,181.561554 152.352585,179.977676 152.131516,178.901138   C151.372223,175.203842 151.077240,171.411209 150.493820,166.767868   C158.426132,166.767868 165.816498,166.767868 173.662567,166.768387  z"
   id="path1108"
   style="fill:#274156;fill-opacity:1;stroke:#274156;stroke-opacity:1" />
<path
   fill="#239FD8"
   opacity="1.000000"
   stroke="none"
   d=" M174.638641,147.265564   C177.836121,146.960098 179.555801,147.591812 179.329910,150.948318   C179.097000,154.409454 179.278168,157.898453 179.278168,161.800522   C169.819626,161.800522 160.646515,161.800522 150.554703,161.800522   C151.124496,157.533264 151.468170,153.315277 152.403534,149.232864   C152.610107,148.331360 154.894516,147.401505 156.251862,147.355133   C162.222946,147.151154 168.204926,147.266083 174.638641,147.265564  z"
   id="path1110"
   style="fill:#274156;fill-opacity:1;stroke:#274156;stroke-opacity:1" />
<path
   fill="#36A5D8"
   opacity="1.000000"
   stroke="none"
   d=" M404.055450,149.703720   C406.688782,149.705231 408.928864,149.365280 410.988281,149.828476   C412.335327,150.131409 413.420624,151.598129 414.623169,152.543579   C413.469879,153.334732 412.371735,154.688858 411.152679,154.808228   C407.892151,155.127502 404.579803,154.917007 401.003540,154.917007   C401.003540,157.498718 401.003540,159.570786 401.003540,162.157715   C402.687836,162.274612 404.353333,162.120224 405.847717,162.554520   C408.353271,163.282700 413.036499,160.310104 413.061249,164.971069   C413.088348,170.080109 408.187134,166.838867 405.589874,167.639175   C404.382812,168.011093 402.966125,167.702698 401.178162,167.702698   C401.178162,169.816254 401.178162,171.660736 401.178162,174.086136   C404.659180,174.086136 408.126495,173.909195 411.556183,174.190491   C412.630157,174.278580 413.602844,175.601212 414.621918,176.358734   C413.618805,177.334869 412.670105,179.077820 411.603088,179.153519   C407.132385,179.470749 402.602142,179.544601 398.148224,179.126770   C396.876160,179.007446 394.824493,176.972092 394.772705,175.745956   C394.457031,168.270615 394.457367,160.768646 394.770935,153.293106   C394.822876,152.055267 396.737427,150.378815 398.145782,149.850983   C399.751862,149.249023 401.754944,149.706284 404.055450,149.703720  z"
   id="path1112"
   style="fill:#274156;fill-opacity:1;stroke:#274156;stroke-opacity:1" />
<path
   fill="#1A9CD7"
   opacity="1.000000"
   stroke="none"
   d=" M179.107361,124.433212   C179.109955,130.500214 179.109955,136.119751 179.109955,142.070099   C170.841934,142.070099 162.964081,142.070099 155.078705,142.070099   C155.432312,132.799896 165.061584,121.426239 173.630753,119.990654   C176.899780,119.443001 179.377625,119.776749 179.107361,124.433212  z"
   id="path1114"
   style="fill:#274156;fill-opacity:1;stroke:#274156;stroke-opacity:1" />
<path
   fill="#1A9CD7"
   opacity="1.000000"
   stroke="none"
   d=" M179.121674,197.001694   C179.118332,199.479553 179.128448,201.469238 179.109985,203.458664   C179.056168,209.261002 177.422165,210.579193 171.790985,208.579483   C161.892700,205.064453 157.799988,196.641037 154.149124,187.047058   C162.679520,187.047058 170.662491,187.047058 179.122055,187.047058   C179.122055,190.267303 179.122055,193.390350 179.121674,197.001694  z"
   id="path1116"
   style="fill:#274156;fill-opacity:1;stroke:#274156;stroke-opacity:1" />
<path
   fill="#269FD7"
   opacity="1.000000"
   stroke="none"
   d=" M199.819946,167.512970   C194.550339,167.512512 189.752487,167.512512 184.598389,167.512512   C184.598389,165.359238 184.598389,163.670456 184.598389,161.485657   C190.379776,161.485657 195.854095,161.710342 201.293015,161.369720   C203.330750,161.242096 205.636383,160.211700 207.210617,158.875244   C211.265015,155.433273 216.114136,155.191589 219.758163,158.751846   C223.173874,162.089035 223.181595,166.988037 219.776337,170.299393   C216.190674,173.786179 211.238495,173.440338 207.189575,170.140442   C205.379150,168.664932 202.620209,168.353256 199.819946,167.512970  z"
   id="path1118"
   style="fill:#274156;fill-opacity:1;stroke:#274156;stroke-opacity:1" />
<path
   fill="#2FA4DA"
   opacity="1.000000"
   stroke="none"
   d=" M441.457153,157.257599   C445.034424,149.583618 445.034424,149.583618 450.609497,150.307510   C445.989838,160.184021 441.475250,169.835846 436.960663,179.487671   C436.376953,179.588913 435.793243,179.690155 435.209503,179.791397   C430.641693,170.120056 426.073883,160.448700 421.404419,150.562134   C425.311340,148.908401 427.396118,149.840561 428.828705,153.318268   C430.888062,158.317490 433.298615,163.172043 435.995453,169.036926   C438.031708,164.646469 439.666260,161.122147 441.457153,157.257599  z"
   id="path1120"
   style="stroke:#274156;stroke-opacity:1;fill:#274156;fill-opacity:1" />
<path
   fill="#239FD8"
   opacity="1.000000"
   stroke="none"
   d=" M189.639465,173.037476   C190.220123,173.050079 190.427765,172.996201 190.545639,173.075607   C195.200317,176.210648 199.840088,178.820953 205.758469,179.620834   C209.798523,180.166840 211.303696,184.557861 210.455719,188.818649   C209.645752,192.888535 205.834808,195.644714 201.599884,195.229446   C197.283142,194.806183 194.550446,192.346436 193.906296,188.033463   C192.663757,179.714050 192.482941,179.422638 184.524063,178.021378   C184.427811,176.688049 184.325302,175.268188 184.180283,173.259247   C186.059219,173.175034 187.641907,173.104111 189.639465,173.037476  z"
   id="path1122"
   style="fill:#274156;fill-opacity:1;stroke:#274156;stroke-opacity:1" />
<path
   fill="#239FD8"
   opacity="1.000000"
   stroke="none"
   d=" M208.584808,147.526840   C202.936554,151.518692 195.428909,150.451614 190.597183,155.793304   C189.714706,156.768906 186.828918,155.932434 184.557983,155.932434   C184.434006,154.157883 184.334885,152.739075 184.219788,151.091583   C185.419189,150.856110 186.348663,150.664963 187.281525,150.492004   C191.226791,149.760544 194.231949,147.985641 193.870926,143.426285   C193.520203,138.997009 195.341675,135.912048 199.257492,134.304031   C202.826630,132.838364 206.236084,133.771957 208.716324,136.745926   C211.517883,140.105179 211.466827,143.715790 208.584808,147.526840  z"
   id="path1124"
   style="fill:#274156;fill-opacity:1;stroke:#274156;stroke-opacity:1" />
<path
   fill="#27A0D8"
   opacity="1.000000"
   stroke="none"
   d=" M146.045380,157.288910   C145.863556,159.013016 145.724548,160.315201 145.552719,161.924667   C140.825500,161.924667 136.257446,161.924667 131.685257,161.920120   C129.375183,150.158066 133.641617,146.086563 147.232498,147.714203   C146.853058,150.749222 146.470612,153.808105 146.045380,157.288910  z"
   id="path1126"
   style="fill:#274156;fill-opacity:1;stroke:#274156;stroke-opacity:1" />
<path
   fill="#27A0D8"
   opacity="1.000000"
   stroke="none"
   d=" M131.905029,166.991089   C136.593781,166.838409 140.887573,166.838409 145.483566,166.838409   C146.088120,171.822296 146.656815,176.510513 147.290894,181.737747   C143.351624,181.737747 139.891541,181.894226 136.461014,181.644516   C135.401230,181.567383 133.713043,180.538452 133.526245,179.680923   C132.626709,175.551437 132.141998,171.331558 131.905029,166.991089  z"
   id="path1128"
   style="fill:#274156;fill-opacity:1;stroke:#274156;stroke-opacity:1" />
<path
   fill="#2AA2D9"
   opacity="1.000000"
   stroke="none"
   d=" M154.747421,199.989502   C155.831818,201.665894 156.716217,203.046814 157.674393,204.542892   C151.028214,203.595169 140.589569,194.519165 137.326889,186.533295   C140.664673,186.533295 143.770035,186.291153 146.800018,186.663040   C147.878143,186.795380 149.091171,188.251114 149.692047,189.392578   C151.458572,192.748444 152.948929,196.249710 154.747421,199.989502  z"
   id="path1130"
   style="fill:#274156;fill-opacity:1;stroke:#274156;stroke-opacity:1" />
<path
   fill="#269FD7"
   opacity="1.000000"
   stroke="none"
   d=" M149.030457,141.236282   C145.193909,141.977280 141.521851,142.366714 137.507004,142.792511   C140.192017,134.723785 149.654022,126.502106 155.813828,126.058136   C153.644470,130.917618 151.419708,135.901169 149.030457,141.236282  z"
   id="path1132"
   style="fill:#274156;fill-opacity:1;stroke:#274156;stroke-opacity:1" />
<path
   fill="#269FD7"
   opacity="1.000000"
   stroke="none"
   d=" M157.505096,123.515137   C157.486145,123.519379 157.524048,123.510887 157.505096,123.515137  z"
   id="path1134" />
<path
   fill="#F5F9FB"
   opacity="1.000000"
   stroke="none"
   d=" M377.780151,169.470978   C374.003632,174.804962 368.980682,174.463715 363.531952,173.748627   C363.531952,167.514313 363.531952,161.479004 363.531952,155.495895   C375.402771,153.245621 381.352570,158.990829 377.780151,169.470978  z"
   id="path1136"
   style="fill:#60585b;fill-opacity:1" />
<path
   fill="#F7FAFB"
   opacity="1.000000"
   stroke="none"
   d=" M336.491852,155.220444   C342.025299,159.492355 343.491577,164.379654 341.009460,169.272324   C338.944000,173.343674 334.481018,175.519363 330.176941,174.553085   C324.600891,173.301208 321.186035,168.046890 322.337982,162.491455   C323.664978,156.092117 328.762848,153.348969 336.491852,155.220444  z"
   id="path1138"
   style="fill:#605856;fill-opacity:1" />
<path
   fill="#F5F9FB"
   opacity="1.000000"
   stroke="none"
   d=" M292.884949,174.848785   C287.933533,174.481140 283.972992,172.465729 283.283600,167.890945   C282.789703,164.613647 283.567108,160.533539 285.258698,157.694168   C287.335114,154.208832 291.457520,153.474640 295.528168,154.788895   C299.597260,156.102661 301.885559,158.919998 302.274475,163.182907   C302.667328,167.488861 301.506134,171.162308 297.489227,173.361160   C296.201843,174.065887 294.684753,174.350937 292.884949,174.848785  z"
   id="path1140"
   style="fill:#605856;fill-opacity:1" />
</svg>
