<?xml version="1.0" encoding="UTF-8" standalone="no"?>
<!-- Created with Inkscape (http://www.inkscape.org/) -->

<svg
   version="1.1"
   id="svg1049"
   width="793.70081"
   height="1122.5197"
   viewBox="0 0 793.70081 1122.5197"
   sodipodi:docname="Paleta de colores pagina.svg"
   inkscape:version="1.2.1 (9c6d41e410, 2022-07-14)"
   xmlns:inkscape="http://www.inkscape.org/namespaces/inkscape"
   xmlns:sodipodi="http://sodipodi.sourceforge.net/DTD/sodipodi-0.dtd"
   xmlns="http://www.w3.org/2000/svg"
   xmlns:svg="http://www.w3.org/2000/svg">
  <defs
     id="defs1053" />
  <sodipodi:namedview
     id="namedview1051"
     pagecolor="#ffffff"
     bordercolor="#000000"
     borderopacity="0.25"
     inkscape:showpageshadow="2"
     inkscape:pageopacity="0.0"
     inkscape:pagecheckerboard="0"
     inkscape:deskcolor="#d1d1d1"
     showgrid="false"
     inkscape:zoom="0.5"
     inkscape:cx="396"
     inkscape:cy="380"
     inkscape:window-width="1366"
     inkscape:window-height="705"
     inkscape:window-x="-8"
     inkscape:window-y="-8"
     inkscape:window-maximized="1"
     inkscape:current-layer="g1057">
    <inkscape:page
       x="0"
       y="0"
       id="page1055"
       width="793.70081"
       height="1122.5197" />
  </sodipodi:namedview>
  <g
     id="g1057"
     inkscape:groupmode="layer"
     inkscape:label="Page 1"
     transform="matrix(1.3333333,0,0,1.3333333,0,4.2729659e-5)">
    <g
       id="g1121"
       transform="translate(-11.739498,-394.11172)">
      <path
         d="m 64.996,494.66 h 78.578 v 78.574 H 64.996 Z"
         style="fill:#d0ccd0;fill-opacity:1;fill-rule:nonzero;stroke:#e8bac2;stroke-width:0.3225;stroke-linecap:butt;stroke-linejoin:miter;stroke-miterlimit:4;stroke-dasharray:none;stroke-opacity:1"
         id="path1123" />
    </g>
    <g
       id="g1125"
       transform="translate(-11.739498,-394.11172)"
       style="fill:#fbfcff;fill-opacity:1">
      <path
         d="m 145.074,494.66 h 78.574 v 78.574 h -78.574 z"
         style="fill:#fbfcff;fill-opacity:1;fill-rule:nonzero;stroke:#e8bac2;stroke-width:0.3225;stroke-linecap:butt;stroke-linejoin:miter;stroke-miterlimit:4;stroke-dasharray:none;stroke-opacity:1"
         id="path1127" />
    </g>
    <g
       id="g1129"
       transform="translate(-11.739498,-394.11172)">
      <path
         d="m 223.859,494.762 h 78.574 v 78.578 h -78.574 z"
         style="fill:#605856;fill-opacity:1;fill-rule:nonzero;stroke:#e8bac2;stroke-width:0.3225;stroke-linecap:butt;stroke-linejoin:miter;stroke-miterlimit:4;stroke-dasharray:none;stroke-opacity:1"
         id="path1131" />
    </g>
    <g
       id="g1133"
       transform="translate(-11.739498,-394.11172)"
       style="fill:#1a9cd7;fill-opacity:1">
      <path
         d="m 302.227,494.762 h 78.578 v 78.578 h -78.578 z"
         style="fill:#1a9cd7;fill-opacity:1;fill-rule:nonzero;stroke:#e8bac2;stroke-width:0.3225;stroke-linecap:butt;stroke-linejoin:miter;stroke-miterlimit:4;stroke-dasharray:none;stroke-opacity:1"
         id="path1135" />
    </g>
    <g
       id="g1137"
       transform="translate(-11.739498,-394.11172)">
      <path
         d="m 382.406,494.66 h 78.578 v 78.574 h -78.578 z"
         style="fill:#274156;fill-opacity:1;fill-rule:nonzero;stroke:#e8bac2;stroke-width:0.3225;stroke-linecap:butt;stroke-linejoin:miter;stroke-miterlimit:4;stroke-dasharray:none;stroke-opacity:1"
         id="path1139" />
    </g>
    <g
       id="g7241"
       transform="matrix(1.5864474,0,0,2.0733409,-327.34057,233.99708)">
      <path
         fill="#2ca2d8"
         opacity="1"
         stroke="none"
         d="m 244.25758,174.70709 c -5.44337,-7.08757 -5.51935,-14.06225 -0.46936,-19.76788 5.46482,-6.1743 14.82219,-7.37303 22.34575,-2.77077 -0.20755,3.07704 -1.28924,4.31908 -4.75726,3.22322 -2.28623,-0.72241 -4.97373,-0.73471 -7.38268,-0.38464 -4.17772,0.60716 -6.84549,3.28908 -7.73597,7.44794 -0.89344,4.17257 0.33767,8.21034 4.06555,9.85803 3.23089,1.42804 7.27545,1.10278 10.97296,1.2653 0.41425,0.0182 1.34796,-1.88913 1.23447,-2.80339 -0.0953,-0.76796 -1.26157,-1.69391 -2.14389,-1.99792 -1.04926,-0.36156 -2.4618,0.20189 -3.42069,-0.25592 -0.93668,-0.44721 -2.0882,-1.69478 -2.06064,-2.55631 0.027,-0.84518 1.30631,-1.83801 2.25336,-2.39926 0.61795,-0.36626 1.62384,-0.0766 2.45593,-0.0832 8.91489,-0.0708 10.95368,2.40752 8.68994,11.10091 -0.34103,1.30968 -1.92312,2.75517 -3.26407,3.26907 -7.30688,2.8004 -14.32907,2.63805 -20.7834,-3.14517 z"
         id="path6687" />
      <path
         fill="#2ca2d9"
         opacity="1"
         stroke="none"
         d="m 372.70343,178.72903 c -14.93811,1.99326 -14.93823,1.99326 -14.93802,-12.45175 6e-5,-4.32863 -0.26364,-8.68359 0.16321,-12.96975 0.12762,-1.28139 2.04217,-3.1294 3.39255,-3.38785 2.72754,-0.52201 5.64166,-0.29702 8.45721,-0.0885 8.34357,0.61791 14.31534,5.73172 15.05643,12.71187 0.84164,7.92718 -3.10523,13.34161 -12.13138,16.186 m 5.27887,-9.59712 c 3.37027,-10.14108 -2.57953,-15.88629 -14.45035,-13.63602 0,5.98311 0,12.01842 0,18.25274 5.44873,0.71508 10.47168,1.05633 14.45035,-4.61672 z"
         id="path6689" />
      <path
         fill="#2aa2d9"
         opacity="1"
         stroke="none"
         d="m 317.40808,170.40265 c -2.39233,-9.24437 0.1698,-15.64313 7.4368,-19.32845 6.59625,-3.34518 15.42108,-1.53788 19.9837,4.09252 4.73389,5.84173 4.14621,14.82126 -1.30813,19.98727 -5.892,5.58049 -15.89121,5.93645 -21.9075,0.60474 -1.58338,-1.40319 -2.70664,-3.3255 -4.20487,-5.35608 m 18.7348,-15.33957 c -7.38003,-1.71411 -12.4779,1.02904 -13.8049,7.42837 -1.15195,5.55544 2.26291,10.80976 7.83896,12.06163 4.30408,0.96628 8.76706,-1.20941 10.83252,-5.28076 2.48212,-4.89267 1.01584,-9.77997 -4.86658,-14.20924 z"
         id="path6691" />
      <path
         fill="#28a1d9"
         opacity="1"
         stroke="none"
         d="m 303.49844,153.49962 c 4.83005,5.07698 6.0011,10.68106 3.50275,16.78489 -2.36038,5.76668 -7.02792,8.66916 -13.15893,9.13491 -7.2457,0.55046 -13.29923,-2.84398 -15.93201,-8.76662 -2.52945,-5.6902 -1.3161,-12.30925 3.03723,-16.56882 4.74991,-4.64759 12.47864,-6.02531 18.4967,-3.20277 1.33927,0.62811 2.52976,1.57344 4.05426,2.61841 m -10.2257,21.32837 c 1.41201,-0.47705 2.9291,-0.7621 4.21649,-1.46683 4.0169,-2.19885 5.1781,-5.8723 4.78524,-10.17825 -0.38891,-4.26291 -2.67721,-7.08025 -6.7463,-8.39402 -4.07065,-1.31425 -8.19306,-0.58006 -10.26947,2.90528 -1.69159,2.83937 -2.469,6.91948 -1.9751,10.19677 0.68939,4.57479 4.64993,6.5902 9.98914,6.93705 z"
         id="path6693" />
      <path
         fill="#36a5d8"
         opacity="1"
         stroke="none"
         d="m 404.05545,149.70372 c 2.63333,0.002 4.87341,-0.33844 6.93283,0.12476 1.34705,0.30293 2.43234,1.76965 3.63489,2.7151 -1.15329,0.79115 -2.25144,2.14528 -3.47049,2.26465 -3.26053,0.31927 -6.57288,0.10878 -10.14914,0.10878 0,2.58171 0,4.65378 0,7.2407 1.6843,0.1169 3.34979,-0.0375 4.84418,0.39681 2.50555,0.72818 7.18878,-2.24442 7.21353,2.41655 0.0271,5.10904 -4.87412,1.8678 -7.47138,2.6681 -1.20706,0.37192 -2.62375,0.0635 -4.41171,0.0635 0,2.11355 0,3.95804 0,6.38344 3.48102,0 6.94833,-0.17695 10.37802,0.10435 1.07398,0.0881 2.04666,1.41072 3.06574,2.16824 -1.00312,0.97614 -1.95182,2.71909 -3.01883,2.79479 -4.47071,0.31723 -9.00095,0.39108 -13.45487,-0.0267 -1.27206,-0.11932 -3.32373,-2.15468 -3.37552,-3.38081 -0.31567,-7.47535 -0.31533,-14.97731 -0.002,-22.45285 0.0519,-1.23784 1.9665,-2.9143 3.37485,-3.44213 1.60608,-0.60196 3.60916,-0.1447 5.90967,-0.14726 z"
         id="path6699" />
      <path
         fill="#2fa4da"
         opacity="1"
         stroke="none"
         d="m 441.45715,157.2576 c 3.57727,-7.67398 3.57727,-7.67398 9.15235,-6.95009 -4.61966,9.87651 -9.13425,19.52834 -13.64884,29.18016 -0.58371,0.10124 -1.16742,0.20248 -1.75116,0.30373 -4.56781,-9.67134 -9.13562,-19.3427 -13.80508,-29.22927 3.90692,-1.65373 5.9917,-0.72157 7.42429,2.75614 2.05935,4.99922 4.4699,9.85377 7.16674,15.71866 2.03626,-4.39046 3.67081,-7.91478 5.4617,-11.77933 z"
         id="path6707" />
      <path
         fill="#f5f9fb"
         opacity="1"
         stroke="none"
         d="m 377.78015,169.47098 c -3.77652,5.33398 -8.79947,4.99273 -14.2482,4.27765 0,-6.23432 0,-12.26963 0,-18.25274 11.87082,-2.25027 17.82062,3.49494 14.2482,13.97509 z"
         id="path6723" />
      <path
         fill="#f7fafb"
         opacity="1"
         stroke="none"
         d="m 336.49185,155.22044 c 5.53345,4.27191 6.99973,9.15921 4.51761,14.05188 -2.06546,4.07135 -6.52844,6.24704 -10.83252,5.28076 -5.57605,-1.25187 -8.99091,-6.50619 -7.83896,-12.06163 1.327,-6.39933 6.42487,-9.14248 14.15387,-7.27101 z"
         id="path6725" />
      <path
         fill="#f5f9fb"
         opacity="1"
         stroke="none"
         d="m 292.88495,174.84878 c -4.95142,-0.36764 -8.91196,-2.38305 -9.60135,-6.95784 -0.4939,-3.27729 0.28351,-7.3574 1.9751,-10.19677 2.07641,-3.48534 6.19882,-4.21953 10.26947,-2.90528 4.06909,1.31377 6.35739,4.13111 6.7463,8.39402 0.39286,4.30595 -0.76834,7.9794 -4.78524,10.17825 -1.28739,0.70473 -2.80448,0.98978 -4.60428,1.48762 z"
         id="path6727" />
    </g>
    <g
       id="g7230"
       transform="matrix(1.6874831,0,0,1.5730108,-181.63524,98.261118)">
      <path
         fill="#239fd8"
         opacity="1"
         stroke="none"
         d="m 173.66257,166.76839 c 1.92387,5.2e-4 3.39206,5.2e-4 5.2395,5.2e-4 0,5.06608 0,9.75587 0,14.94209 -8.19237,0 -16.13042,0.0948 -24.05989,-0.12297 -0.96401,-0.0265 -2.4896,-1.61035 -2.71066,-2.68689 -0.7593,-3.6973 -1.05428,-7.48993 -1.6377,-12.13327 7.93231,0 15.32268,0 23.16875,5.2e-4 z"
         id="path6695" />
      <path
         fill="#239fd8"
         opacity="1"
         stroke="none"
         d="m 174.63864,147.26556 c 3.19748,-0.30546 4.91716,0.32625 4.69127,3.68276 -0.23291,3.46113 -0.0517,6.95013 -0.0517,10.8522 -9.45854,0 -18.63166,0 -28.72347,0 0.5698,-4.26726 0.91347,-8.48524 1.84883,-12.56766 0.20658,-0.9015 2.49099,-1.83136 3.84833,-1.87773 5.97109,-0.20398 11.95307,-0.0891 18.38678,-0.0896 z"
         id="path6697" />
      <g
         id="g7215">
        <path
           fill="#1a9cd7"
           opacity="1"
           stroke="none"
           d="m 179.10736,124.43321 c 0.003,6.067 0.003,11.68654 0.003,17.63689 -8.26803,0 -16.14588,0 -24.03125,0 0.3536,-9.2702 9.98287,-20.64386 18.55204,-22.07945 3.26903,-0.54765 5.74687,-0.2139 5.47661,4.44256 z"
           id="path6701" />
      </g>
      <path
         fill="#1a9cd7"
         opacity="1"
         stroke="none"
         d="m 179.12167,197.00169 c -0.003,2.47786 0.007,4.46755 -0.0117,6.45697 -0.0538,5.80234 -1.68782,7.12053 -7.319,5.12082 -9.89828,-3.51503 -13.99099,-11.93844 -17.64186,-21.53242 8.5304,0 16.51337,0 24.97293,0 0,3.22024 0,6.34329 -3.8e-4,9.95463 z"
         id="path6703" />
      <path
         fill="#269fd7"
         opacity="1"
         stroke="none"
         d="m 199.81995,167.51297 c -5.26961,-4.6e-4 -10.06746,-4.6e-4 -15.22156,-4.6e-4 0,-2.15327 0,-3.84205 0,-6.02685 5.78139,0 11.2557,0.22468 16.69462,-0.11594 2.03774,-0.12762 4.34337,-1.15802 5.91761,-2.49448 4.05439,-3.44197 8.90352,-3.68365 12.54754,-0.12339 3.41571,3.33718 3.42343,8.23619 0.0182,11.54754 -3.58567,3.48679 -8.53785,3.14095 -12.58677,-0.15895 -1.81042,-1.47551 -4.56936,-1.78718 -7.36962,-2.62747 z"
         id="path6705" />
      <path
         fill="#239fd8"
         opacity="1"
         stroke="none"
         d="m 189.63946,173.03748 c 0.58066,0.0126 0.7883,-0.0413 0.90618,0.0381 4.65468,3.13504 9.29445,5.74534 15.21283,6.54522 4.04005,0.54601 5.54523,4.93703 4.69725,9.19782 -0.80997,4.06988 -4.62091,6.82606 -8.85584,6.4108 -4.31674,-0.42327 -7.04943,-2.88301 -7.69358,-7.19599 -1.24254,-8.31941 -1.42336,-8.61082 -9.38224,-10.01208 -0.0962,-1.33333 -0.19876,-2.75319 -0.34378,-4.76213 1.87894,-0.0842 3.46163,-0.15514 5.45918,-0.22177 z"
         id="path6709" />
      <path
         fill="#239fd8"
         opacity="1"
         stroke="none"
         d="m 208.58481,147.52684 c -5.64826,3.99185 -13.1559,2.92477 -17.98763,8.26646 -0.88247,0.97561 -3.76826,0.13913 -6.0392,0.13913 -0.12397,-1.77455 -0.22309,-3.19335 -0.33819,-4.84085 1.1994,-0.23547 2.12887,-0.42662 3.06173,-0.59958 3.94527,-0.73146 6.95043,-2.50636 6.58941,-7.06572 -0.35073,-4.42927 1.47074,-7.51423 5.38656,-9.12225 3.56914,-1.46567 6.97859,-0.53207 9.45883,2.4419 2.80156,3.35925 2.75051,6.96986 -0.13151,10.78091 z"
         id="path6711" />
      <path
         fill="#27a0d8"
         opacity="1"
         stroke="none"
         d="m 146.04538,157.28891 c -0.18182,1.72411 -0.32083,3.02629 -0.49266,4.63576 -4.72722,0 -9.29527,0 -13.86746,-0.005 -2.31008,-11.76205 1.95636,-15.83356 15.54724,-14.20592 -0.37944,3.03502 -0.76189,6.0939 -1.18712,9.57471 z"
         id="path6713" />
      <path
         fill="#27a0d8"
         opacity="1"
         stroke="none"
         d="m 131.90503,166.99109 c 4.68875,-0.15268 8.98254,-0.15268 13.57854,-0.15268 0.60455,4.98389 1.17324,9.6721 1.80732,14.89934 -3.93927,0 -7.39935,0.15648 -10.82988,-0.0932 -1.05978,-0.0771 -2.74797,-1.10607 -2.93477,-1.9636 -0.89953,-4.12948 -1.38424,-8.34936 -1.62121,-12.68983 z"
         id="path6715" />
      <path
         fill="#2aa2d9"
         opacity="1"
         stroke="none"
         d="m 154.74742,199.9895 c 1.0844,1.67639 1.9688,3.05731 2.92697,4.55339 -6.64618,-0.94772 -17.08482,-10.02373 -20.3475,-18.0096 3.33778,0 6.44314,-0.24214 9.47313,0.12975 1.07812,0.13234 2.29115,1.58807 2.89203,2.72954 1.76652,3.35586 3.25688,6.85713 5.05537,10.59692 z"
         id="path6717" />
      <path
         fill="#269fd7"
         opacity="1"
         stroke="none"
         d="m 149.03046,141.23628 c -3.83655,0.741 -7.50861,1.13043 -11.52346,1.55623 2.68502,-8.06873 12.14702,-16.2904 18.30683,-16.73437 -2.16936,4.85948 -4.39412,9.84303 -6.78337,15.17814 z"
         id="path6719" />
      <path
         fill="#269fd7"
         opacity="1"
         stroke="none"
         d="m 157.5051,123.51514 c -0.019,0.004 0.0189,-0.004 0,0 z"
         id="path6721" />
    </g>
    <text
       xml:space="preserve"
       style="font-size:54px;fill:#d0ccd0;fill-opacity:1;stroke:#e8bac2;stroke-width:0.3225"
       x="26.833139"
       y="209.63388"
       id="text2254"><tspan
         sodipodi:role="line"
         id="tspan2252"
         style="stroke-width:0.3225;fill:#d0ccd0;fill-opacity:1"
         x="26.833139"
         y="209.63388"></tspan><tspan
         sodipodi:role="line"
         style="stroke-width:0.3225;fill:#d0ccd0;fill-opacity:1"
         id="tspan2256"
         x="26.833139"
         y="277.13388" /></text>
    <text
       xml:space="preserve"
       style="font-size:21px;fill:#d0ccd0;fill-opacity:1;stroke:#e8bac2;stroke-width:0.3225"
       x="35.218494"
       y="207.95679"
       id="text2312"><tspan
         sodipodi:role="line"
         id="tspan2310"
         style="font-size:21px;stroke-width:0.3225"
         x="35.218494"
         y="207.95679">d0ccd0ff</tspan></text>
    <text
       xml:space="preserve"
       style="font-size:21px;white-space:pre;inline-size:6.24964;fill:#fbfcff;fill-opacity:1;stroke:#e8bac2;stroke-width:0.3225"
       x="150.9364"
       y="197.89436"
       id="text2537"><tspan
         x="150.9364"
         y="197.89436"
         id="tspan5037"><tspan
           dx="0 7.3828125 13.083984 7.3828125 10.940918 7.3828125 7.3828125 7.3828125"
           id="tspan5035">fbfcffff</tspan></tspan></text>
    <text
       xml:space="preserve"
       style="font-size:21px;fill:#fbfcff;fill-opacity:1;stroke:#e8bac2;stroke-width:0.3225"
       x="40.249683"
       y="233.11287"
       id="text2643"><tspan
         sodipodi:role="line"
         id="tspan2641"
         style="fill:#280b0b;stroke-width:0.3225"
         x="40.249683"
         y="233.11287">fbfcffff</tspan></text>
    <text
       xml:space="preserve"
       style="font-size:21px;fill:#605856;fill-opacity:1;stroke:#e8bac2;stroke-width:0.3225"
       x="30.187267"
       y="258.26892"
       id="text3784"><tspan
         sodipodi:role="line"
         id="tspan3782"
         style="fill:#605856;fill-opacity:1;stroke-width:0.3225"
         x="30.187267"
         y="258.26892">605856ff</tspan></text>
    <text
       xml:space="preserve"
       style="font-size:21px;fill:#1a9cd7;fill-opacity:1;stroke:#e8bac2;stroke-width:0.3225"
       x="224.72754"
       y="204.60265"
       id="text4685"><tspan
         sodipodi:role="line"
         id="tspan4683"
         style="stroke-width:0.3225"
         x="224.72754"
         y="204.60265">1a9cd7ff</tspan></text>
    <text
       xml:space="preserve"
       style="font-size:21px;fill:#274156;fill-opacity:1;stroke:#e8bac2;stroke-width:0.3225"
       x="219"
       y="226.49997"
       id="text4841"><tspan
         sodipodi:role="line"
         id="tspan4839"
         style="stroke-width:0.3225"
         x="219"
         y="226.49997">274156ff</tspan></text>
  </g>
</svg>
